# xmcd
#
# Track frame offsets: 
#        150
#        11855
#        25080
#        39786
#        53358
#        66037
#        79482
#        92930
#        105444
#        119423
#        135033
#        150956
#        163169
#        176660
#        190147
#        202597
#        215186
#        228344
#        240821
#        254061
#        265126
#        279251
#        291883
#        303244
#        317486
#
# Disc length: 4424 seconds
#
# Revision: 1
# Processed by: cddbd v1.5.2PL0 Copyright (c) Steve Scherf et al.
# Submitted via: ExactAudioCopy v0.95b3
#
DISCID=44114619
DTITLE=The Carter Family - The Carter Family 1927-1934 [CDE)
DYEAR=2002
DGENRE=Country
TTITLE0=On A Hill Lone And Gray
TTITLE1=Cowboy Jack
TTITLE2=I'll Be All Smiles Tonight
TTITLE3=Away Out On The Old Saint Sabbath
TTITLE4=Happy Or Lonesome
TTITLE5=One Little Word
TTITLE6=Darling Daisies
TTITLE7=The East Virginia Blues
TTITLE8=Lovers Return
TTITLE9=It'll Aggravate Your Soul
TTITLE10=Hello Central! Give Me Heaven
TTITLE11=I'm Working On A Building
TTITLE12=You've Been Fooling Me, Baby
TTITLE13=Longing For Old Virginia
TTITLE14=March WInds Goin' To Blow My Blues Away
TTITLE15=There'll Be Joy, Joy, Joy
TTITLE16=Are You Tired Of Me My Darling
TTITLE17=My Heart's Tonight In Texas
TTITLE18=There's No Hiding Place Down Here
TTITLE19=Cowboy's Wild Song To His Herd
TTITLE20=The Evening Bells Are Ringing
TTITLE21=The Mountains Of Tennessee
TTITLE22=I'll Be Home Some Day
TTITLE23=Faded Coat Of Blue
TTITLE24=Sailor Boy
EXTD=
EXTT0=
EXTT1=
EXTT2=
EXTT3=
EXTT4=
EXTT5=
EXTT6=
EXTT7=
EXTT8=
EXTT9=
EXTT10=
EXTT11=
EXTT12=
EXTT13=
EXTT14=
EXTT15=
EXTT16=
EXTT17=
EXTT18=
EXTT19=
EXTT20=
EXTT21=
EXTT22=
EXTT23=
EXTT24=
PLAYORDER=
